<?xml version="1.0" encoding="UTF-8"?>
<!-- Generator: Adobe Illustrator 21.0.0, SVG Export Plug-In . SVG Version: 6.00 Build 0)  -->
<svg version="1.1" id="Слой_1" xmlns="http://www.w3.org/2000/svg" xmlns:xlink="http://www.w3.org/1999/xlink" x="0px" y="0px" width="301.4px" height="301.4px" viewBox="0 0 301.4 301.4" enable-background="new 0 0 301.4 301.4" xml:space="preserve" nighteye="disabled">
<g>
	<g>
		<g>
			<defs>
				<rect id="SVGID_1_" y="0" width="301.4" height="301.4"/>
			</defs>
			<clipPath id="SVGID_2_">
				<use xlink:href="#SVGID_1_" overflow="visible"/>
			</clipPath>
			
				<linearGradient id="SVGID_3_" gradientUnits="userSpaceOnUse" x1="-27.58" y1="47.65" x2="328.98" y2="253.51" gradientTransform="matrix(1 0 0 -1 0 301.28)">
				<stop offset="0" style="stop-color:#EC238D"/>
				<stop offset="0.0121" style="stop-color:#EA238C"/>
				<stop offset="0.2206" style="stop-color:#C32482"/>
				<stop offset="0.427" style="stop-color:#A4247A"/>
				<stop offset="0.6282" style="stop-color:#8F2574"/>
				<stop offset="0.822" style="stop-color:#812570"/>
				<stop offset="1" style="stop-color:#7D256F"/>
			</linearGradient>
			<rect y="0" clip-path="url(#SVGID_2_)" fill="url(#SVGID_3_)" width="301.4" height="301.4"/>
		</g>
	</g>
	<path fill="#FFFFFE" d="M31.3,94.6c6.4,0.1,12.8,0,19.1,0c7.5,27.8,14.9,55.6,22.4,83.3c0.3,1.1,0.5,2.1,0.9,3.1   c0.7-1.6,1-3.3,1.6-5c6.7-22.8,13.3-45.7,19.9-68.6c1.3-4.3,2.4-8.7,3.8-12.9c5.6,0.1,11.2,0,16.8,0.1c7.4,25.7,14.8,51.4,22.2,77   c0.9,3.2,1.9,6.3,2.7,9.5c0.2-0.3,0.4-0.6,0.5-0.9c7.6-28.6,15.4-57.1,23-85.6c6.4,0,12.8,0,19.3,0c-2.5,8.3-4.7,16.7-7.1,25   c-6.7,23.8-13.5,47.6-20.2,71.4c-1.5,4.9-2.7,9.9-4.2,14.7c-6.8-0.1-13.7,0-20.5,0c-0.7,0.1-0.7-0.7-0.9-1.2   c-7.7-26.6-15.4-53.2-23.1-79.9c-1.1,3-1.8,6.2-2.8,9.3c-6.9,23.9-13.9,47.7-20.8,71.6l-0.1,0.2c-7,0.1-14,0-21,0.1   c-2.6-8.5-4.9-17.1-7.3-25.7c-8-28.1-15.9-56.3-23.9-84.4C31.5,95.3,31.4,95,31.3,94.6L31.3,94.6z M191.3,94.7   c14.8,0,29.6,0,44.4,0c5.8-0.1,11.6,1.4,16.7,4.3c5.3,3.2,9.9,7.7,12.7,13.3c2.7,5.5,3.3,11.7,2.6,17.7c-0.7,5.5-3.2,10.8-7.2,14.8   c-1.1,1.2-2.5,2.3-3.7,3.4c4.7,2.5,8.8,6.2,11.5,10.8c2.5,4.1,3.8,8.9,3.9,13.7c0.2,5.3-0.7,10.7-3.1,15.4   c-2.3,4.8-6.2,8.8-10.5,11.8c-4.2,2.9-9,4.8-14.1,5.4c-3.5,0.5-7.1,0.4-10.6,0.4c-8.4,0-16.7,0-25.1,0c-5.8-0.1-11.6,0.1-17.4-0.1   c0.1-34.3,0-68.6,0-103C191.4,100,191.4,97.3,191.3,94.7L191.3,94.7z M209.7,111.6c-0.2,1.1-0.1,2.2-0.1,3.3c0,8.7,0,17.4,0,26.1   c7.5,0,14.9,0,22.4,0c2.3,0,4.5,0.1,6.7-0.4c2.6-0.5,5.1-1.9,6.9-3.8c5.3-5.3,5.5-14.7,0.5-20.3c-2.5-2.9-6.3-4.6-10.1-4.8   C227.3,111.6,218.5,111.8,209.7,111.6L209.7,111.6z M209.6,157.5c0,5.7,0,11.4,0,17.1c0.1,4.7-0.1,9.4,0.1,14.1   c8.2-0.1,16.4,0,24.5,0c3.2-0.1,6.5,0.3,9.5-0.8c4.8-1.6,8.6-5.7,9.8-10.6c1.1-4.1,0.5-8.6-1.6-12.2c-2.6-4.7-8-7.8-13.4-7.6   C228.9,157.5,219.3,157.4,209.6,157.5z"/>
</g>
</svg>